<svg width="429" height="486" xmlns="http://www.w3.org/2000/svg">
 <!-- Created with Method Draw - http://github.com/duopixel/Method-Draw/ -->

 <g>
  <title>background</title>
  <rect fill="#fff" id="canvas_background" height="488" width="431" y="-1" x="-1"/>
  <g display="none" overflow="visible" y="0" x="0" height="100%" width="100%" id="canvasGrid">
   <rect fill="url(#gridpattern)" stroke-width="0" y="43.055511" x="1" height="400" width="580"/>
  </g>
 </g>
 <g>
  <title>Layer 1</title>
  <g id="svg_10">
   <polygon id="svg_4" fill="#e44f26" points="38.687522888183594,437.5173034667969 -0.3228912055492401,0 428.3229064941406,0 389.2604064941406,437.4478759765625 213.73959350585938,486.11102294921875 38.687522888183594,437.5173034667969 "/>
   <polygon id="svg_5" fill="#f1662a" points="214.00003051757812,448.923583984375 355.84027099609375,409.60064697265625 389.20831298828125,35.78124237060547 214.00003051757812,35.78124237060547 214.00003051757812,448.923583984375 "/>
   <polygon id="svg_6" fill="#ebebeb" points="214.00003051757812,198.0381622314453 142.99307250976562,198.0381622314453 138.09725952148438,143.0902557373047 214.00003051757812,143.0902557373047 214.00003051757812,89.42707061767578 213.80905151367188,89.42707061767578 79.451416015625,89.42707061767578 80.73614501953125,103.83679962158203 93.91322326660156,251.7013702392578 214.00003051757812,251.7013702392578 214.00003051757812,198.0381622314453 "/>
   <polygon id="svg_7" fill="#ebebeb" points="214.00003051757812,337.3957824707031 213.7569580078125,337.4652404785156 154.00001525878906,321.3367919921875 150.18057250976562,278.5416564941406 121.13542175292969,278.5416564941406 96.30905151367188,278.5416564941406 103.82640075683594,362.7777404785156 213.7569580078125,393.2985534667969 214.00003051757812,393.2291259765625 214.00003051757812,337.3957824707031 "/>
   <polygon id="svg_8" fill="#fff" points="213.80905151367188,198.0381622314453 213.80905151367188,251.7013702392578 279.88543701171875,251.7013702392578 273.6701354980469,321.30206298828125 213.80905151367188,337.4478759765625 213.80905151367188,393.28118896484375 323.8263854980469,362.7777404785156 324.625,353.7152404785156 337.2291564941406,212.44790649414062 338.5486145019531,198.0381622314453 324.0867919921875,198.0381622314453 213.80905151367188,198.0381622314453 "/>
   <polygon id="svg_9" fill="#fff" points="213.80905151367188,89.42707061767578 213.80905151367188,122.76041412353516 213.80905151367188,142.96875 213.80905151367188,143.0902557373047 343.2534484863281,143.0902557373047 343.2534484863281,143.0902557373047 343.4270935058594,143.0902557373047 344.50347900390625,131.04165649414062 346.9513854980469,103.83679962158203 348.2361145019531,89.42707061767578 213.80905151367188,89.42707061767578 "/>
  </g>
 </g>
</svg>